<mxfile host="app.diagrams.net" modified="2022-11-22T15:32:02.092Z" agent="5.0 (Windows)" etag="miLvUt18HxDVp7KpuHg9" version="20.5.3" type="github">
  <diagram id="HXi_V4lzNJAsQVqTlTgc" name="Page-1">
    <mxGraphModel dx="2830" dy="957" grid="1" gridSize="10" guides="1" tooltips="1" connect="1" arrows="1" fold="1" page="1" pageScale="1" pageWidth="1100" pageHeight="850" math="0" shadow="0">
      <root>
        <mxCell id="0" />
        <mxCell id="1" parent="0" />
        <mxCell id="dxBMr5hOVsrZBSF7ixPA-187" value="" style="shape=flexArrow;endArrow=classic;html=1;rounded=0;" parent="1" edge="1">
          <mxGeometry width="50" height="50" relative="1" as="geometry">
            <mxPoint x="-550" y="364.38" as="sourcePoint" />
            <mxPoint x="-410" y="364" as="targetPoint" />
            <Array as="points">
              <mxPoint x="-490" y="364.38" />
            </Array>
          </mxGeometry>
        </mxCell>
        <mxCell id="dxBMr5hOVsrZBSF7ixPA-188" value="&lt;font style=&quot;font-size: 18px;&quot;&gt;Convolutional Neural Network&lt;/font&gt;" style="whiteSpace=wrap;html=1;aspect=fixed;fillColor=#e1d5e7;strokeColor=#9673a6;" parent="1" vertex="1">
          <mxGeometry x="-380" y="250" width="230" height="230" as="geometry" />
        </mxCell>
        <mxCell id="dxBMr5hOVsrZBSF7ixPA-189" value="" style="shape=table;startSize=0;container=1;collapsible=0;childLayout=tableLayout;fontSize=18;" parent="1" vertex="1">
          <mxGeometry x="50" y="280" width="210" height="220" as="geometry" />
        </mxCell>
        <mxCell id="dxBMr5hOVsrZBSF7ixPA-190" value="" style="shape=tableRow;horizontal=0;startSize=0;swimlaneHead=0;swimlaneBody=0;top=0;left=0;bottom=0;right=0;collapsible=0;dropTarget=0;fillColor=none;points=[[0,0.5],[1,0.5]];portConstraint=eastwest;fontSize=18;" parent="dxBMr5hOVsrZBSF7ixPA-189" vertex="1">
          <mxGeometry width="210" height="31" as="geometry" />
        </mxCell>
        <mxCell id="dxBMr5hOVsrZBSF7ixPA-191" value="" style="shape=partialRectangle;html=1;whiteSpace=wrap;connectable=0;overflow=hidden;fillColor=none;top=0;left=0;bottom=0;right=0;pointerEvents=1;fontSize=18;" parent="dxBMr5hOVsrZBSF7ixPA-190" vertex="1">
          <mxGeometry width="23" height="31" as="geometry">
            <mxRectangle width="23" height="31" as="alternateBounds" />
          </mxGeometry>
        </mxCell>
        <mxCell id="dxBMr5hOVsrZBSF7ixPA-192" value="" style="shape=partialRectangle;html=1;whiteSpace=wrap;connectable=0;overflow=hidden;fillColor=none;top=0;left=0;bottom=0;right=0;pointerEvents=1;fontSize=18;" parent="dxBMr5hOVsrZBSF7ixPA-190" vertex="1">
          <mxGeometry x="23" width="24" height="31" as="geometry">
            <mxRectangle width="24" height="31" as="alternateBounds" />
          </mxGeometry>
        </mxCell>
        <mxCell id="dxBMr5hOVsrZBSF7ixPA-193" value="" style="shape=partialRectangle;html=1;whiteSpace=wrap;connectable=0;overflow=hidden;fillColor=none;top=0;left=0;bottom=0;right=0;pointerEvents=1;fontSize=18;" parent="dxBMr5hOVsrZBSF7ixPA-190" vertex="1">
          <mxGeometry x="47" width="23" height="31" as="geometry">
            <mxRectangle width="23" height="31" as="alternateBounds" />
          </mxGeometry>
        </mxCell>
        <mxCell id="dxBMr5hOVsrZBSF7ixPA-194" value="" style="shape=partialRectangle;html=1;whiteSpace=wrap;connectable=0;overflow=hidden;fillColor=none;top=0;left=0;bottom=0;right=0;pointerEvents=1;fontSize=18;" parent="dxBMr5hOVsrZBSF7ixPA-190" vertex="1">
          <mxGeometry x="70" width="24" height="31" as="geometry">
            <mxRectangle width="24" height="31" as="alternateBounds" />
          </mxGeometry>
        </mxCell>
        <mxCell id="dxBMr5hOVsrZBSF7ixPA-195" value="" style="shape=partialRectangle;html=1;whiteSpace=wrap;connectable=0;overflow=hidden;fillColor=none;top=0;left=0;bottom=0;right=0;pointerEvents=1;fontSize=18;" parent="dxBMr5hOVsrZBSF7ixPA-190" vertex="1">
          <mxGeometry x="94" width="22" height="31" as="geometry">
            <mxRectangle width="22" height="31" as="alternateBounds" />
          </mxGeometry>
        </mxCell>
        <mxCell id="dxBMr5hOVsrZBSF7ixPA-196" value="" style="shape=partialRectangle;html=1;whiteSpace=wrap;connectable=0;overflow=hidden;fillColor=none;top=0;left=0;bottom=0;right=0;pointerEvents=1;fontSize=18;" parent="dxBMr5hOVsrZBSF7ixPA-190" vertex="1">
          <mxGeometry x="116" width="24" height="31" as="geometry">
            <mxRectangle width="24" height="31" as="alternateBounds" />
          </mxGeometry>
        </mxCell>
        <mxCell id="dxBMr5hOVsrZBSF7ixPA-197" value="" style="shape=partialRectangle;html=1;whiteSpace=wrap;connectable=0;overflow=hidden;fillColor=none;top=0;left=0;bottom=0;right=0;pointerEvents=1;fontSize=18;" parent="dxBMr5hOVsrZBSF7ixPA-190" vertex="1">
          <mxGeometry x="140" width="23" height="31" as="geometry">
            <mxRectangle width="23" height="31" as="alternateBounds" />
          </mxGeometry>
        </mxCell>
        <mxCell id="dxBMr5hOVsrZBSF7ixPA-198" value="" style="shape=partialRectangle;html=1;whiteSpace=wrap;connectable=0;overflow=hidden;fillColor=none;top=0;left=0;bottom=0;right=0;pointerEvents=1;fontSize=18;" parent="dxBMr5hOVsrZBSF7ixPA-190" vertex="1">
          <mxGeometry x="163" width="24" height="31" as="geometry">
            <mxRectangle width="24" height="31" as="alternateBounds" />
          </mxGeometry>
        </mxCell>
        <mxCell id="dxBMr5hOVsrZBSF7ixPA-199" value="" style="shape=partialRectangle;html=1;whiteSpace=wrap;connectable=0;overflow=hidden;fillColor=none;top=0;left=0;bottom=0;right=0;pointerEvents=1;fontSize=18;" parent="dxBMr5hOVsrZBSF7ixPA-190" vertex="1">
          <mxGeometry x="187" width="23" height="31" as="geometry">
            <mxRectangle width="23" height="31" as="alternateBounds" />
          </mxGeometry>
        </mxCell>
        <mxCell id="dxBMr5hOVsrZBSF7ixPA-200" value="" style="shape=tableRow;horizontal=0;startSize=0;swimlaneHead=0;swimlaneBody=0;top=0;left=0;bottom=0;right=0;collapsible=0;dropTarget=0;fillColor=none;points=[[0,0.5],[1,0.5]];portConstraint=eastwest;fontSize=18;" parent="dxBMr5hOVsrZBSF7ixPA-189" vertex="1">
          <mxGeometry y="31" width="210" height="32" as="geometry" />
        </mxCell>
        <mxCell id="dxBMr5hOVsrZBSF7ixPA-201" value="" style="shape=partialRectangle;html=1;whiteSpace=wrap;connectable=0;overflow=hidden;fillColor=none;top=0;left=0;bottom=0;right=0;pointerEvents=1;fontSize=18;" parent="dxBMr5hOVsrZBSF7ixPA-200" vertex="1">
          <mxGeometry width="23" height="32" as="geometry">
            <mxRectangle width="23" height="32" as="alternateBounds" />
          </mxGeometry>
        </mxCell>
        <mxCell id="dxBMr5hOVsrZBSF7ixPA-202" value="" style="shape=partialRectangle;html=1;whiteSpace=wrap;connectable=0;overflow=hidden;fillColor=none;top=0;left=0;bottom=0;right=0;pointerEvents=1;fontSize=18;" parent="dxBMr5hOVsrZBSF7ixPA-200" vertex="1">
          <mxGeometry x="23" width="24" height="32" as="geometry">
            <mxRectangle width="24" height="32" as="alternateBounds" />
          </mxGeometry>
        </mxCell>
        <mxCell id="dxBMr5hOVsrZBSF7ixPA-203" value="" style="shape=partialRectangle;html=1;whiteSpace=wrap;connectable=0;overflow=hidden;fillColor=none;top=0;left=0;bottom=0;right=0;pointerEvents=1;fontSize=18;" parent="dxBMr5hOVsrZBSF7ixPA-200" vertex="1">
          <mxGeometry x="47" width="23" height="32" as="geometry">
            <mxRectangle width="23" height="32" as="alternateBounds" />
          </mxGeometry>
        </mxCell>
        <mxCell id="dxBMr5hOVsrZBSF7ixPA-204" value="" style="shape=partialRectangle;html=1;whiteSpace=wrap;connectable=0;overflow=hidden;fillColor=none;top=0;left=0;bottom=0;right=0;pointerEvents=1;fontSize=18;" parent="dxBMr5hOVsrZBSF7ixPA-200" vertex="1">
          <mxGeometry x="70" width="24" height="32" as="geometry">
            <mxRectangle width="24" height="32" as="alternateBounds" />
          </mxGeometry>
        </mxCell>
        <mxCell id="dxBMr5hOVsrZBSF7ixPA-205" value="" style="shape=partialRectangle;html=1;whiteSpace=wrap;connectable=0;overflow=hidden;fillColor=none;top=0;left=0;bottom=0;right=0;pointerEvents=1;fontSize=18;" parent="dxBMr5hOVsrZBSF7ixPA-200" vertex="1">
          <mxGeometry x="94" width="22" height="32" as="geometry">
            <mxRectangle width="22" height="32" as="alternateBounds" />
          </mxGeometry>
        </mxCell>
        <mxCell id="dxBMr5hOVsrZBSF7ixPA-206" value="" style="shape=partialRectangle;html=1;whiteSpace=wrap;connectable=0;overflow=hidden;fillColor=none;top=0;left=0;bottom=0;right=0;pointerEvents=1;fontSize=18;" parent="dxBMr5hOVsrZBSF7ixPA-200" vertex="1">
          <mxGeometry x="116" width="24" height="32" as="geometry">
            <mxRectangle width="24" height="32" as="alternateBounds" />
          </mxGeometry>
        </mxCell>
        <mxCell id="dxBMr5hOVsrZBSF7ixPA-207" value="" style="shape=partialRectangle;html=1;whiteSpace=wrap;connectable=0;overflow=hidden;fillColor=none;top=0;left=0;bottom=0;right=0;pointerEvents=1;fontSize=18;" parent="dxBMr5hOVsrZBSF7ixPA-200" vertex="1">
          <mxGeometry x="140" width="23" height="32" as="geometry">
            <mxRectangle width="23" height="32" as="alternateBounds" />
          </mxGeometry>
        </mxCell>
        <mxCell id="dxBMr5hOVsrZBSF7ixPA-208" value="" style="shape=partialRectangle;html=1;whiteSpace=wrap;connectable=0;overflow=hidden;fillColor=none;top=0;left=0;bottom=0;right=0;pointerEvents=1;fontSize=18;" parent="dxBMr5hOVsrZBSF7ixPA-200" vertex="1">
          <mxGeometry x="163" width="24" height="32" as="geometry">
            <mxRectangle width="24" height="32" as="alternateBounds" />
          </mxGeometry>
        </mxCell>
        <mxCell id="dxBMr5hOVsrZBSF7ixPA-209" value="" style="shape=partialRectangle;html=1;whiteSpace=wrap;connectable=0;overflow=hidden;fillColor=none;top=0;left=0;bottom=0;right=0;pointerEvents=1;fontSize=18;" parent="dxBMr5hOVsrZBSF7ixPA-200" vertex="1">
          <mxGeometry x="187" width="23" height="32" as="geometry">
            <mxRectangle width="23" height="32" as="alternateBounds" />
          </mxGeometry>
        </mxCell>
        <mxCell id="dxBMr5hOVsrZBSF7ixPA-210" value="" style="shape=tableRow;horizontal=0;startSize=0;swimlaneHead=0;swimlaneBody=0;top=0;left=0;bottom=0;right=0;collapsible=0;dropTarget=0;fillColor=none;points=[[0,0.5],[1,0.5]];portConstraint=eastwest;fontSize=18;" parent="dxBMr5hOVsrZBSF7ixPA-189" vertex="1">
          <mxGeometry y="63" width="210" height="31" as="geometry" />
        </mxCell>
        <mxCell id="dxBMr5hOVsrZBSF7ixPA-211" value="" style="shape=partialRectangle;html=1;whiteSpace=wrap;connectable=0;overflow=hidden;fillColor=none;top=0;left=0;bottom=0;right=0;pointerEvents=1;fontSize=18;" parent="dxBMr5hOVsrZBSF7ixPA-210" vertex="1">
          <mxGeometry width="23" height="31" as="geometry">
            <mxRectangle width="23" height="31" as="alternateBounds" />
          </mxGeometry>
        </mxCell>
        <mxCell id="dxBMr5hOVsrZBSF7ixPA-212" value="" style="shape=partialRectangle;html=1;whiteSpace=wrap;connectable=0;overflow=hidden;fillColor=none;top=0;left=0;bottom=0;right=0;pointerEvents=1;fontSize=18;" parent="dxBMr5hOVsrZBSF7ixPA-210" vertex="1">
          <mxGeometry x="23" width="24" height="31" as="geometry">
            <mxRectangle width="24" height="31" as="alternateBounds" />
          </mxGeometry>
        </mxCell>
        <mxCell id="dxBMr5hOVsrZBSF7ixPA-213" value="" style="shape=partialRectangle;html=1;whiteSpace=wrap;connectable=0;overflow=hidden;fillColor=none;top=0;left=0;bottom=0;right=0;pointerEvents=1;fontSize=18;" parent="dxBMr5hOVsrZBSF7ixPA-210" vertex="1">
          <mxGeometry x="47" width="23" height="31" as="geometry">
            <mxRectangle width="23" height="31" as="alternateBounds" />
          </mxGeometry>
        </mxCell>
        <mxCell id="dxBMr5hOVsrZBSF7ixPA-214" value="" style="shape=partialRectangle;html=1;whiteSpace=wrap;connectable=0;overflow=hidden;fillColor=none;top=0;left=0;bottom=0;right=0;pointerEvents=1;fontSize=18;" parent="dxBMr5hOVsrZBSF7ixPA-210" vertex="1">
          <mxGeometry x="70" width="24" height="31" as="geometry">
            <mxRectangle width="24" height="31" as="alternateBounds" />
          </mxGeometry>
        </mxCell>
        <mxCell id="dxBMr5hOVsrZBSF7ixPA-215" value="" style="shape=partialRectangle;html=1;whiteSpace=wrap;connectable=0;overflow=hidden;fillColor=none;top=0;left=0;bottom=0;right=0;pointerEvents=1;fontSize=18;" parent="dxBMr5hOVsrZBSF7ixPA-210" vertex="1">
          <mxGeometry x="94" width="22" height="31" as="geometry">
            <mxRectangle width="22" height="31" as="alternateBounds" />
          </mxGeometry>
        </mxCell>
        <mxCell id="dxBMr5hOVsrZBSF7ixPA-216" value="" style="shape=partialRectangle;html=1;whiteSpace=wrap;connectable=0;overflow=hidden;fillColor=none;top=0;left=0;bottom=0;right=0;pointerEvents=1;fontSize=18;" parent="dxBMr5hOVsrZBSF7ixPA-210" vertex="1">
          <mxGeometry x="116" width="24" height="31" as="geometry">
            <mxRectangle width="24" height="31" as="alternateBounds" />
          </mxGeometry>
        </mxCell>
        <mxCell id="dxBMr5hOVsrZBSF7ixPA-217" value="" style="shape=partialRectangle;html=1;whiteSpace=wrap;connectable=0;overflow=hidden;fillColor=none;top=0;left=0;bottom=0;right=0;pointerEvents=1;fontSize=18;" parent="dxBMr5hOVsrZBSF7ixPA-210" vertex="1">
          <mxGeometry x="140" width="23" height="31" as="geometry">
            <mxRectangle width="23" height="31" as="alternateBounds" />
          </mxGeometry>
        </mxCell>
        <mxCell id="dxBMr5hOVsrZBSF7ixPA-218" value="" style="shape=partialRectangle;html=1;whiteSpace=wrap;connectable=0;overflow=hidden;fillColor=none;top=0;left=0;bottom=0;right=0;pointerEvents=1;fontSize=18;" parent="dxBMr5hOVsrZBSF7ixPA-210" vertex="1">
          <mxGeometry x="163" width="24" height="31" as="geometry">
            <mxRectangle width="24" height="31" as="alternateBounds" />
          </mxGeometry>
        </mxCell>
        <mxCell id="dxBMr5hOVsrZBSF7ixPA-219" value="" style="shape=partialRectangle;html=1;whiteSpace=wrap;connectable=0;overflow=hidden;fillColor=none;top=0;left=0;bottom=0;right=0;pointerEvents=1;fontSize=18;" parent="dxBMr5hOVsrZBSF7ixPA-210" vertex="1">
          <mxGeometry x="187" width="23" height="31" as="geometry">
            <mxRectangle width="23" height="31" as="alternateBounds" />
          </mxGeometry>
        </mxCell>
        <mxCell id="dxBMr5hOVsrZBSF7ixPA-220" value="" style="shape=tableRow;horizontal=0;startSize=0;swimlaneHead=0;swimlaneBody=0;top=0;left=0;bottom=0;right=0;collapsible=0;dropTarget=0;fillColor=none;points=[[0,0.5],[1,0.5]];portConstraint=eastwest;fontSize=18;" parent="dxBMr5hOVsrZBSF7ixPA-189" vertex="1">
          <mxGeometry y="94" width="210" height="32" as="geometry" />
        </mxCell>
        <mxCell id="dxBMr5hOVsrZBSF7ixPA-221" value="" style="shape=partialRectangle;html=1;whiteSpace=wrap;connectable=0;overflow=hidden;fillColor=none;top=0;left=0;bottom=0;right=0;pointerEvents=1;fontSize=18;" parent="dxBMr5hOVsrZBSF7ixPA-220" vertex="1">
          <mxGeometry width="23" height="32" as="geometry">
            <mxRectangle width="23" height="32" as="alternateBounds" />
          </mxGeometry>
        </mxCell>
        <mxCell id="dxBMr5hOVsrZBSF7ixPA-222" value="" style="shape=partialRectangle;html=1;whiteSpace=wrap;connectable=0;overflow=hidden;fillColor=none;top=0;left=0;bottom=0;right=0;pointerEvents=1;fontSize=18;" parent="dxBMr5hOVsrZBSF7ixPA-220" vertex="1">
          <mxGeometry x="23" width="24" height="32" as="geometry">
            <mxRectangle width="24" height="32" as="alternateBounds" />
          </mxGeometry>
        </mxCell>
        <mxCell id="dxBMr5hOVsrZBSF7ixPA-223" value="" style="shape=partialRectangle;html=1;whiteSpace=wrap;connectable=0;overflow=hidden;fillColor=none;top=0;left=0;bottom=0;right=0;pointerEvents=1;fontSize=18;" parent="dxBMr5hOVsrZBSF7ixPA-220" vertex="1">
          <mxGeometry x="47" width="23" height="32" as="geometry">
            <mxRectangle width="23" height="32" as="alternateBounds" />
          </mxGeometry>
        </mxCell>
        <mxCell id="dxBMr5hOVsrZBSF7ixPA-224" value="" style="shape=partialRectangle;html=1;whiteSpace=wrap;connectable=0;overflow=hidden;fillColor=none;top=0;left=0;bottom=0;right=0;pointerEvents=1;fontSize=18;" parent="dxBMr5hOVsrZBSF7ixPA-220" vertex="1">
          <mxGeometry x="70" width="24" height="32" as="geometry">
            <mxRectangle width="24" height="32" as="alternateBounds" />
          </mxGeometry>
        </mxCell>
        <mxCell id="dxBMr5hOVsrZBSF7ixPA-225" value="" style="shape=partialRectangle;html=1;whiteSpace=wrap;connectable=0;overflow=hidden;fillColor=none;top=0;left=0;bottom=0;right=0;pointerEvents=1;fontSize=18;" parent="dxBMr5hOVsrZBSF7ixPA-220" vertex="1">
          <mxGeometry x="94" width="22" height="32" as="geometry">
            <mxRectangle width="22" height="32" as="alternateBounds" />
          </mxGeometry>
        </mxCell>
        <mxCell id="dxBMr5hOVsrZBSF7ixPA-226" value="" style="shape=partialRectangle;html=1;whiteSpace=wrap;connectable=0;overflow=hidden;fillColor=none;top=0;left=0;bottom=0;right=0;pointerEvents=1;fontSize=18;" parent="dxBMr5hOVsrZBSF7ixPA-220" vertex="1">
          <mxGeometry x="116" width="24" height="32" as="geometry">
            <mxRectangle width="24" height="32" as="alternateBounds" />
          </mxGeometry>
        </mxCell>
        <mxCell id="dxBMr5hOVsrZBSF7ixPA-227" value="" style="shape=partialRectangle;html=1;whiteSpace=wrap;connectable=0;overflow=hidden;fillColor=none;top=0;left=0;bottom=0;right=0;pointerEvents=1;fontSize=18;" parent="dxBMr5hOVsrZBSF7ixPA-220" vertex="1">
          <mxGeometry x="140" width="23" height="32" as="geometry">
            <mxRectangle width="23" height="32" as="alternateBounds" />
          </mxGeometry>
        </mxCell>
        <mxCell id="dxBMr5hOVsrZBSF7ixPA-228" value="" style="shape=partialRectangle;html=1;whiteSpace=wrap;connectable=0;overflow=hidden;fillColor=none;top=0;left=0;bottom=0;right=0;pointerEvents=1;fontSize=18;" parent="dxBMr5hOVsrZBSF7ixPA-220" vertex="1">
          <mxGeometry x="163" width="24" height="32" as="geometry">
            <mxRectangle width="24" height="32" as="alternateBounds" />
          </mxGeometry>
        </mxCell>
        <mxCell id="dxBMr5hOVsrZBSF7ixPA-229" value="" style="shape=partialRectangle;html=1;whiteSpace=wrap;connectable=0;overflow=hidden;fillColor=none;top=0;left=0;bottom=0;right=0;pointerEvents=1;fontSize=18;" parent="dxBMr5hOVsrZBSF7ixPA-220" vertex="1">
          <mxGeometry x="187" width="23" height="32" as="geometry">
            <mxRectangle width="23" height="32" as="alternateBounds" />
          </mxGeometry>
        </mxCell>
        <mxCell id="dxBMr5hOVsrZBSF7ixPA-230" value="" style="shape=tableRow;horizontal=0;startSize=0;swimlaneHead=0;swimlaneBody=0;top=0;left=0;bottom=0;right=0;collapsible=0;dropTarget=0;fillColor=none;points=[[0,0.5],[1,0.5]];portConstraint=eastwest;fontSize=18;" parent="dxBMr5hOVsrZBSF7ixPA-189" vertex="1">
          <mxGeometry y="126" width="210" height="31" as="geometry" />
        </mxCell>
        <mxCell id="dxBMr5hOVsrZBSF7ixPA-231" value="" style="shape=partialRectangle;html=1;whiteSpace=wrap;connectable=0;overflow=hidden;fillColor=none;top=0;left=0;bottom=0;right=0;pointerEvents=1;fontSize=18;" parent="dxBMr5hOVsrZBSF7ixPA-230" vertex="1">
          <mxGeometry width="23" height="31" as="geometry">
            <mxRectangle width="23" height="31" as="alternateBounds" />
          </mxGeometry>
        </mxCell>
        <mxCell id="dxBMr5hOVsrZBSF7ixPA-232" value="" style="shape=partialRectangle;html=1;whiteSpace=wrap;connectable=0;overflow=hidden;fillColor=none;top=0;left=0;bottom=0;right=0;pointerEvents=1;fontSize=18;" parent="dxBMr5hOVsrZBSF7ixPA-230" vertex="1">
          <mxGeometry x="23" width="24" height="31" as="geometry">
            <mxRectangle width="24" height="31" as="alternateBounds" />
          </mxGeometry>
        </mxCell>
        <mxCell id="dxBMr5hOVsrZBSF7ixPA-233" value="" style="shape=partialRectangle;html=1;whiteSpace=wrap;connectable=0;overflow=hidden;fillColor=none;top=0;left=0;bottom=0;right=0;pointerEvents=1;fontSize=18;" parent="dxBMr5hOVsrZBSF7ixPA-230" vertex="1">
          <mxGeometry x="47" width="23" height="31" as="geometry">
            <mxRectangle width="23" height="31" as="alternateBounds" />
          </mxGeometry>
        </mxCell>
        <mxCell id="dxBMr5hOVsrZBSF7ixPA-234" value="" style="shape=partialRectangle;html=1;whiteSpace=wrap;connectable=0;overflow=hidden;fillColor=none;top=0;left=0;bottom=0;right=0;pointerEvents=1;fontSize=18;" parent="dxBMr5hOVsrZBSF7ixPA-230" vertex="1">
          <mxGeometry x="70" width="24" height="31" as="geometry">
            <mxRectangle width="24" height="31" as="alternateBounds" />
          </mxGeometry>
        </mxCell>
        <mxCell id="dxBMr5hOVsrZBSF7ixPA-235" value="" style="shape=partialRectangle;html=1;whiteSpace=wrap;connectable=0;overflow=hidden;fillColor=none;top=0;left=0;bottom=0;right=0;pointerEvents=1;fontSize=18;" parent="dxBMr5hOVsrZBSF7ixPA-230" vertex="1">
          <mxGeometry x="94" width="22" height="31" as="geometry">
            <mxRectangle width="22" height="31" as="alternateBounds" />
          </mxGeometry>
        </mxCell>
        <mxCell id="dxBMr5hOVsrZBSF7ixPA-236" value="" style="shape=partialRectangle;html=1;whiteSpace=wrap;connectable=0;overflow=hidden;fillColor=none;top=0;left=0;bottom=0;right=0;pointerEvents=1;fontSize=18;" parent="dxBMr5hOVsrZBSF7ixPA-230" vertex="1">
          <mxGeometry x="116" width="24" height="31" as="geometry">
            <mxRectangle width="24" height="31" as="alternateBounds" />
          </mxGeometry>
        </mxCell>
        <mxCell id="dxBMr5hOVsrZBSF7ixPA-237" value="" style="shape=partialRectangle;html=1;whiteSpace=wrap;connectable=0;overflow=hidden;fillColor=none;top=0;left=0;bottom=0;right=0;pointerEvents=1;fontSize=18;" parent="dxBMr5hOVsrZBSF7ixPA-230" vertex="1">
          <mxGeometry x="140" width="23" height="31" as="geometry">
            <mxRectangle width="23" height="31" as="alternateBounds" />
          </mxGeometry>
        </mxCell>
        <mxCell id="dxBMr5hOVsrZBSF7ixPA-238" value="" style="shape=partialRectangle;html=1;whiteSpace=wrap;connectable=0;overflow=hidden;fillColor=none;top=0;left=0;bottom=0;right=0;pointerEvents=1;fontSize=18;" parent="dxBMr5hOVsrZBSF7ixPA-230" vertex="1">
          <mxGeometry x="163" width="24" height="31" as="geometry">
            <mxRectangle width="24" height="31" as="alternateBounds" />
          </mxGeometry>
        </mxCell>
        <mxCell id="dxBMr5hOVsrZBSF7ixPA-239" value="" style="shape=partialRectangle;html=1;whiteSpace=wrap;connectable=0;overflow=hidden;fillColor=none;top=0;left=0;bottom=0;right=0;pointerEvents=1;fontSize=18;" parent="dxBMr5hOVsrZBSF7ixPA-230" vertex="1">
          <mxGeometry x="187" width="23" height="31" as="geometry">
            <mxRectangle width="23" height="31" as="alternateBounds" />
          </mxGeometry>
        </mxCell>
        <mxCell id="dxBMr5hOVsrZBSF7ixPA-240" value="" style="shape=tableRow;horizontal=0;startSize=0;swimlaneHead=0;swimlaneBody=0;top=0;left=0;bottom=0;right=0;collapsible=0;dropTarget=0;fillColor=none;points=[[0,0.5],[1,0.5]];portConstraint=eastwest;fontSize=18;" parent="dxBMr5hOVsrZBSF7ixPA-189" vertex="1">
          <mxGeometry y="157" width="210" height="32" as="geometry" />
        </mxCell>
        <mxCell id="dxBMr5hOVsrZBSF7ixPA-241" value="" style="shape=partialRectangle;html=1;whiteSpace=wrap;connectable=0;overflow=hidden;fillColor=none;top=0;left=0;bottom=0;right=0;pointerEvents=1;fontSize=18;" parent="dxBMr5hOVsrZBSF7ixPA-240" vertex="1">
          <mxGeometry width="23" height="32" as="geometry">
            <mxRectangle width="23" height="32" as="alternateBounds" />
          </mxGeometry>
        </mxCell>
        <mxCell id="dxBMr5hOVsrZBSF7ixPA-242" value="" style="shape=partialRectangle;html=1;whiteSpace=wrap;connectable=0;overflow=hidden;fillColor=none;top=0;left=0;bottom=0;right=0;pointerEvents=1;fontSize=18;" parent="dxBMr5hOVsrZBSF7ixPA-240" vertex="1">
          <mxGeometry x="23" width="24" height="32" as="geometry">
            <mxRectangle width="24" height="32" as="alternateBounds" />
          </mxGeometry>
        </mxCell>
        <mxCell id="dxBMr5hOVsrZBSF7ixPA-243" value="" style="shape=partialRectangle;html=1;whiteSpace=wrap;connectable=0;overflow=hidden;fillColor=none;top=0;left=0;bottom=0;right=0;pointerEvents=1;fontSize=18;" parent="dxBMr5hOVsrZBSF7ixPA-240" vertex="1">
          <mxGeometry x="47" width="23" height="32" as="geometry">
            <mxRectangle width="23" height="32" as="alternateBounds" />
          </mxGeometry>
        </mxCell>
        <mxCell id="dxBMr5hOVsrZBSF7ixPA-244" value="" style="shape=partialRectangle;html=1;whiteSpace=wrap;connectable=0;overflow=hidden;fillColor=none;top=0;left=0;bottom=0;right=0;pointerEvents=1;fontSize=18;" parent="dxBMr5hOVsrZBSF7ixPA-240" vertex="1">
          <mxGeometry x="70" width="24" height="32" as="geometry">
            <mxRectangle width="24" height="32" as="alternateBounds" />
          </mxGeometry>
        </mxCell>
        <mxCell id="dxBMr5hOVsrZBSF7ixPA-245" value="" style="shape=partialRectangle;html=1;whiteSpace=wrap;connectable=0;overflow=hidden;fillColor=none;top=0;left=0;bottom=0;right=0;pointerEvents=1;fontSize=18;" parent="dxBMr5hOVsrZBSF7ixPA-240" vertex="1">
          <mxGeometry x="94" width="22" height="32" as="geometry">
            <mxRectangle width="22" height="32" as="alternateBounds" />
          </mxGeometry>
        </mxCell>
        <mxCell id="dxBMr5hOVsrZBSF7ixPA-246" value="" style="shape=partialRectangle;html=1;whiteSpace=wrap;connectable=0;overflow=hidden;fillColor=none;top=0;left=0;bottom=0;right=0;pointerEvents=1;fontSize=18;" parent="dxBMr5hOVsrZBSF7ixPA-240" vertex="1">
          <mxGeometry x="116" width="24" height="32" as="geometry">
            <mxRectangle width="24" height="32" as="alternateBounds" />
          </mxGeometry>
        </mxCell>
        <mxCell id="dxBMr5hOVsrZBSF7ixPA-247" value="" style="shape=partialRectangle;html=1;whiteSpace=wrap;connectable=0;overflow=hidden;fillColor=none;top=0;left=0;bottom=0;right=0;pointerEvents=1;fontSize=18;" parent="dxBMr5hOVsrZBSF7ixPA-240" vertex="1">
          <mxGeometry x="140" width="23" height="32" as="geometry">
            <mxRectangle width="23" height="32" as="alternateBounds" />
          </mxGeometry>
        </mxCell>
        <mxCell id="dxBMr5hOVsrZBSF7ixPA-248" value="" style="shape=partialRectangle;html=1;whiteSpace=wrap;connectable=0;overflow=hidden;fillColor=none;top=0;left=0;bottom=0;right=0;pointerEvents=1;fontSize=18;" parent="dxBMr5hOVsrZBSF7ixPA-240" vertex="1">
          <mxGeometry x="163" width="24" height="32" as="geometry">
            <mxRectangle width="24" height="32" as="alternateBounds" />
          </mxGeometry>
        </mxCell>
        <mxCell id="dxBMr5hOVsrZBSF7ixPA-249" value="" style="shape=partialRectangle;html=1;whiteSpace=wrap;connectable=0;overflow=hidden;fillColor=none;top=0;left=0;bottom=0;right=0;pointerEvents=1;fontSize=18;" parent="dxBMr5hOVsrZBSF7ixPA-240" vertex="1">
          <mxGeometry x="187" width="23" height="32" as="geometry">
            <mxRectangle width="23" height="32" as="alternateBounds" />
          </mxGeometry>
        </mxCell>
        <mxCell id="dxBMr5hOVsrZBSF7ixPA-250" value="" style="shape=tableRow;horizontal=0;startSize=0;swimlaneHead=0;swimlaneBody=0;top=0;left=0;bottom=0;right=0;collapsible=0;dropTarget=0;fillColor=none;points=[[0,0.5],[1,0.5]];portConstraint=eastwest;fontSize=18;" parent="dxBMr5hOVsrZBSF7ixPA-189" vertex="1">
          <mxGeometry y="189" width="210" height="31" as="geometry" />
        </mxCell>
        <mxCell id="dxBMr5hOVsrZBSF7ixPA-251" value="" style="shape=partialRectangle;html=1;whiteSpace=wrap;connectable=0;overflow=hidden;fillColor=none;top=0;left=0;bottom=0;right=0;pointerEvents=1;fontSize=18;" parent="dxBMr5hOVsrZBSF7ixPA-250" vertex="1">
          <mxGeometry width="23" height="31" as="geometry">
            <mxRectangle width="23" height="31" as="alternateBounds" />
          </mxGeometry>
        </mxCell>
        <mxCell id="dxBMr5hOVsrZBSF7ixPA-252" value="" style="shape=partialRectangle;html=1;whiteSpace=wrap;connectable=0;overflow=hidden;fillColor=none;top=0;left=0;bottom=0;right=0;pointerEvents=1;fontSize=18;" parent="dxBMr5hOVsrZBSF7ixPA-250" vertex="1">
          <mxGeometry x="23" width="24" height="31" as="geometry">
            <mxRectangle width="24" height="31" as="alternateBounds" />
          </mxGeometry>
        </mxCell>
        <mxCell id="dxBMr5hOVsrZBSF7ixPA-253" value="" style="shape=partialRectangle;html=1;whiteSpace=wrap;connectable=0;overflow=hidden;fillColor=none;top=0;left=0;bottom=0;right=0;pointerEvents=1;fontSize=18;" parent="dxBMr5hOVsrZBSF7ixPA-250" vertex="1">
          <mxGeometry x="47" width="23" height="31" as="geometry">
            <mxRectangle width="23" height="31" as="alternateBounds" />
          </mxGeometry>
        </mxCell>
        <mxCell id="dxBMr5hOVsrZBSF7ixPA-254" value="" style="shape=partialRectangle;html=1;whiteSpace=wrap;connectable=0;overflow=hidden;fillColor=none;top=0;left=0;bottom=0;right=0;pointerEvents=1;fontSize=18;" parent="dxBMr5hOVsrZBSF7ixPA-250" vertex="1">
          <mxGeometry x="70" width="24" height="31" as="geometry">
            <mxRectangle width="24" height="31" as="alternateBounds" />
          </mxGeometry>
        </mxCell>
        <mxCell id="dxBMr5hOVsrZBSF7ixPA-255" value="" style="shape=partialRectangle;html=1;whiteSpace=wrap;connectable=0;overflow=hidden;fillColor=none;top=0;left=0;bottom=0;right=0;pointerEvents=1;fontSize=18;" parent="dxBMr5hOVsrZBSF7ixPA-250" vertex="1">
          <mxGeometry x="94" width="22" height="31" as="geometry">
            <mxRectangle width="22" height="31" as="alternateBounds" />
          </mxGeometry>
        </mxCell>
        <mxCell id="dxBMr5hOVsrZBSF7ixPA-256" value="" style="shape=partialRectangle;html=1;whiteSpace=wrap;connectable=0;overflow=hidden;fillColor=none;top=0;left=0;bottom=0;right=0;pointerEvents=1;fontSize=18;" parent="dxBMr5hOVsrZBSF7ixPA-250" vertex="1">
          <mxGeometry x="116" width="24" height="31" as="geometry">
            <mxRectangle width="24" height="31" as="alternateBounds" />
          </mxGeometry>
        </mxCell>
        <mxCell id="dxBMr5hOVsrZBSF7ixPA-257" value="" style="shape=partialRectangle;html=1;whiteSpace=wrap;connectable=0;overflow=hidden;fillColor=none;top=0;left=0;bottom=0;right=0;pointerEvents=1;fontSize=18;" parent="dxBMr5hOVsrZBSF7ixPA-250" vertex="1">
          <mxGeometry x="140" width="23" height="31" as="geometry">
            <mxRectangle width="23" height="31" as="alternateBounds" />
          </mxGeometry>
        </mxCell>
        <mxCell id="dxBMr5hOVsrZBSF7ixPA-258" value="" style="shape=partialRectangle;html=1;whiteSpace=wrap;connectable=0;overflow=hidden;fillColor=none;top=0;left=0;bottom=0;right=0;pointerEvents=1;fontSize=18;" parent="dxBMr5hOVsrZBSF7ixPA-250" vertex="1">
          <mxGeometry x="163" width="24" height="31" as="geometry">
            <mxRectangle width="24" height="31" as="alternateBounds" />
          </mxGeometry>
        </mxCell>
        <mxCell id="dxBMr5hOVsrZBSF7ixPA-259" value="" style="shape=partialRectangle;html=1;whiteSpace=wrap;connectable=0;overflow=hidden;fillColor=none;top=0;left=0;bottom=0;right=0;pointerEvents=1;fontSize=18;" parent="dxBMr5hOVsrZBSF7ixPA-250" vertex="1">
          <mxGeometry x="187" width="23" height="31" as="geometry">
            <mxRectangle width="23" height="31" as="alternateBounds" />
          </mxGeometry>
        </mxCell>
        <mxCell id="dxBMr5hOVsrZBSF7ixPA-260" value="" style="shape=flexArrow;endArrow=classic;html=1;rounded=0;" parent="1" edge="1">
          <mxGeometry width="50" height="50" relative="1" as="geometry">
            <mxPoint x="-130" y="364.66999999999996" as="sourcePoint" />
            <mxPoint x="10" y="364.28999999999996" as="targetPoint" />
            <Array as="points">
              <mxPoint x="-70" y="364.66999999999996" />
            </Array>
          </mxGeometry>
        </mxCell>
        <mxCell id="5Odb6qrQYNYKzk0IE7YN-2" value="" style="endArrow=none;dashed=1;html=1;rounded=0;" edge="1" parent="1">
          <mxGeometry width="50" height="50" relative="1" as="geometry">
            <mxPoint x="260" y="280" as="sourcePoint" />
            <mxPoint x="310" y="230" as="targetPoint" />
          </mxGeometry>
        </mxCell>
        <mxCell id="5Odb6qrQYNYKzk0IE7YN-3" value="" style="endArrow=none;dashed=1;html=1;rounded=0;" edge="1" parent="1">
          <mxGeometry width="50" height="50" relative="1" as="geometry">
            <mxPoint x="50" y="280" as="sourcePoint" />
            <mxPoint x="100" y="230" as="targetPoint" />
          </mxGeometry>
        </mxCell>
        <mxCell id="5Odb6qrQYNYKzk0IE7YN-4" value="" style="endArrow=none;dashed=1;html=1;rounded=0;" edge="1" parent="1">
          <mxGeometry width="50" height="50" relative="1" as="geometry">
            <mxPoint x="260" y="500" as="sourcePoint" />
            <mxPoint x="310" y="450" as="targetPoint" />
          </mxGeometry>
        </mxCell>
        <mxCell id="5Odb6qrQYNYKzk0IE7YN-5" value="" style="endArrow=none;dashed=1;html=1;rounded=0;" edge="1" parent="1">
          <mxGeometry width="50" height="50" relative="1" as="geometry">
            <mxPoint x="100" y="230" as="sourcePoint" />
            <mxPoint x="310" y="230" as="targetPoint" />
          </mxGeometry>
        </mxCell>
        <mxCell id="5Odb6qrQYNYKzk0IE7YN-6" value="" style="endArrow=none;dashed=1;html=1;rounded=0;" edge="1" parent="1">
          <mxGeometry width="50" height="50" relative="1" as="geometry">
            <mxPoint x="310" y="450" as="sourcePoint" />
            <mxPoint x="310" y="230" as="targetPoint" />
          </mxGeometry>
        </mxCell>
        <mxCell id="5Odb6qrQYNYKzk0IE7YN-8" value="" style="whiteSpace=wrap;html=1;aspect=fixed;" vertex="1" parent="1">
          <mxGeometry x="-750" y="280" width="190" height="190" as="geometry" />
        </mxCell>
        <mxCell id="5Odb6qrQYNYKzk0IE7YN-9" value="" style="shape=image;html=1;verticalAlign=top;verticalLabelPosition=bottom;labelBackgroundColor=#ffffff;imageAspect=0;aspect=fixed;image=https://cdn0.iconfinder.com/data/icons/google-material-design-3-0/48/ic_face_48px-128.png" vertex="1" parent="1">
          <mxGeometry x="-719" y="311" width="128" height="128" as="geometry" />
        </mxCell>
        <mxCell id="5Odb6qrQYNYKzk0IE7YN-10" value="&lt;font style=&quot;font-size: 18px;&quot;&gt;&lt;b&gt;7 X 9 &lt;/b&gt;m&lt;/font&gt;" style="text;html=1;strokeColor=none;fillColor=none;align=center;verticalAlign=middle;whiteSpace=wrap;rounded=0;" vertex="1" parent="1">
          <mxGeometry x="125" y="535" width="60" height="30" as="geometry" />
        </mxCell>
        <mxCell id="5Odb6qrQYNYKzk0IE7YN-12" value="" style="endArrow=classic;startArrow=classic;html=1;rounded=0;fontSize=18;" edge="1" parent="1">
          <mxGeometry width="50" height="50" relative="1" as="geometry">
            <mxPoint x="270" y="510" as="sourcePoint" />
            <mxPoint x="320" y="460" as="targetPoint" />
          </mxGeometry>
        </mxCell>
        <mxCell id="5Odb6qrQYNYKzk0IE7YN-13" value="" style="endArrow=classic;startArrow=classic;html=1;rounded=0;fontSize=18;" edge="1" parent="1">
          <mxGeometry width="50" height="50" relative="1" as="geometry">
            <mxPoint x="50" y="520" as="sourcePoint" />
            <mxPoint x="250" y="520" as="targetPoint" />
          </mxGeometry>
        </mxCell>
        <mxCell id="5Odb6qrQYNYKzk0IE7YN-14" value="" style="endArrow=classic;startArrow=classic;html=1;rounded=0;fontSize=18;" edge="1" parent="1">
          <mxGeometry width="50" height="50" relative="1" as="geometry">
            <mxPoint x="30" y="500" as="sourcePoint" />
            <mxPoint x="30" y="290" as="targetPoint" />
          </mxGeometry>
        </mxCell>
        <mxCell id="5Odb6qrQYNYKzk0IE7YN-15" value="B(5+C)" style="text;html=1;strokeColor=none;fillColor=none;align=center;verticalAlign=middle;whiteSpace=wrap;rounded=0;fontSize=18;" vertex="1" parent="1">
          <mxGeometry x="300" y="470" width="60" height="40" as="geometry" />
        </mxCell>
        <mxCell id="5Odb6qrQYNYKzk0IE7YN-18" value="&lt;div&gt;face as input image&lt;/div&gt;" style="text;html=1;strokeColor=none;fillColor=none;align=center;verticalAlign=middle;whiteSpace=wrap;rounded=0;fontSize=18;" vertex="1" parent="1">
          <mxGeometry x="-737.5" y="480" width="165" height="30" as="geometry" />
        </mxCell>
        <mxCell id="5Odb6qrQYNYKzk0IE7YN-21" value="&lt;div&gt;Box co-ordinates(x,y,w,h)&lt;/div&gt;&lt;div&gt;+Objectness score&lt;/div&gt;&lt;div&gt;&amp;nbsp;+ C class scores&lt;/div&gt;" style="rounded=0;whiteSpace=wrap;html=1;fontSize=18;fillColor=none;" vertex="1" parent="1">
          <mxGeometry x="390" y="480" width="290" height="100" as="geometry" />
        </mxCell>
      </root>
    </mxGraphModel>
  </diagram>
</mxfile>
